# xmcd
#
# Track frame offsets: 
#        225
#        11310
#        21881
#        32505
#        44897
#        54409
#        63224
#        74624
#        86599
#        96042
#        106671
#        117785
#        130536
#        141312
#        152394
#        161860
#        174240
#        184469
#        196718
#        209961
#        222624
#        233115
#        245483
#        256800
#        267800
#        277986
#        293011
#        304180
#        317687
#        328098
#
# Disc length: 4560 seconds
#
# Revision: 0
# Processed by: cddbd v1.5.1PL0 Copyright (c) Steve Scherf et al.
# Submitted via: ExactAudioCopy v0.95a5
#
DISCID=b011cd1e
DTITLE=Beatles - Complete Edition CD 8
DYEAR=1965
DGENRE=Oldies
TTITLE0=Tat means a lot
TTITLE1=Help
TTITLE2=Bad Boy
TTITLE3=Dizzy Miss lizzy
TTITLE4=Yesterday
TTITLE5=It´s only love
TTITLE6=Act naturally
TTITLE7=I´m down
TTITLE8=I´ve just seen a face
TTITLE9=Run for your life
TTITLE10=Drive my car
TTITLE11=Day Tripper
TTITLE12=If I needed someone
TTITLE13=In my life
TTITLE14=Norwegian Wood
TTITLE15=Nowhere man
TTITLE16=We can work it out
TTITLE17=Michelle
TTITLE18=12-Bar Original
TTITLE19=What goes on
TTITLE20=THink for yourself
TTITLE21=The Word
TTITLE22=Girl
TTITLE23=I´m looking through you
TTITLE24=Wait
TTITLE25=You won´t see me
TTITLE26=Got to get you into my life
TTITLE27=Love you to
TTITLE28=Paperback writer
TTITLE29=Rain
EXTD=
EXTT0=
EXTT1=
EXTT2=
EXTT3=
EXTT4=
EXTT5=
EXTT6=
EXTT7=
EXTT8=
EXTT9=
EXTT10=
EXTT11=
EXTT12=
EXTT13=
EXTT14=
EXTT15=
EXTT16=
EXTT17=
EXTT18=
EXTT19=
EXTT20=
EXTT21=
EXTT22=
EXTT23=
EXTT24=
EXTT25=
EXTT26=
EXTT27=
EXTT28=
EXTT29=
PLAYORDER=
